<svg width="33" height="31" viewBox="0 0 33 31" fill="none" xmlns="http://www.w3.org/2000/svg">
<g clip-path="url(#clip0)">
<path d="M7.31135 18.9311L6.19958 22.7995L2.13609 22.8796C0.921701 20.7802 0.23288 18.3783 0.23288 15.8258C0.23288 13.3576 0.87691 11.03 2.0185 8.98051H2.01937L5.63702 9.59869L7.22177 12.9503C6.89009 13.8516 6.70931 14.8191 6.70931 15.8258C6.70943 16.9184 6.92178 17.9653 7.31135 18.9311Z" fill="#008000"/>
<path d="M31.8934 13.0452C32.0768 13.9456 32.1724 14.8754 32.1724 15.8258C32.1724 16.8914 32.0522 17.9309 31.8232 18.9336C31.0458 22.3456 29.0145 25.325 26.2005 27.4333L26.1996 27.4325L21.643 27.2158L20.9981 23.4636C22.8653 22.4429 24.3245 20.8457 25.0932 18.9336H16.5537V13.0452H25.2178H31.8934Z" fill="#008000"/>
<path d="M26.1995 27.4326L26.2004 27.4334C23.4636 29.4837 19.9871 30.7104 16.2026 30.7104C10.121 30.7104 4.83341 27.5422 2.13608 22.8797L7.31134 18.9312C8.65997 22.2859 12.1321 24.674 16.2026 24.674C17.9523 24.674 19.5914 24.2332 20.9979 23.4636L26.1995 27.4326Z" fill="#008000"/>
<path d="M26.3961 4.36791L21.2226 8.31559C19.7669 7.46752 18.0461 6.9776 16.2026 6.9776C12.04 6.9776 8.5029 9.47525 7.22183 12.9503L2.01937 8.98051H2.01849C4.67634 4.20435 10.0306 0.941193 16.2026 0.941193C20.0775 0.941193 23.6303 2.22767 26.3961 4.36791Z" fill="#008000"/>
</g>
<defs>
<clipPath id="clip0">
<rect width="31.9395" height="29.7692" fill="white" transform="translate(0.23288 0.941193)"/>
</clipPath>
</defs>
</svg>
