<svg width="629" height="603" viewBox="0 0 629 603" fill="none" xmlns="http://www.w3.org/2000/svg">
<path d="M0.773621 0V603H629V0H0.773621ZM616.301 548.792C616.301 572.05 602.57 590.878 585.608 590.878H44.1212C27.1591 590.878 13.4279 572.05 13.4279 548.792V54.2085C13.4279 30.9499 27.1591 12.1215 44.1212 12.1215H585.608C602.57 12.1215 616.301 30.9499 616.301 54.2085V548.792Z" fill="#803A62"/>
<path d="M501.29 330.912C487.2 289.502 457.629 258.49 450.449 213.88C442.955 167.24 461.219 112.54 440.981 73.7137C425.544 44.0559 394.582 39.4411 368.286 44.7328C341.99 50.0244 315.65 62.3305 289.444 56.1775C267.59 51.0704 248.07 33.5342 226.217 28.7348C186.818 20.059 132.432 54.6392 125.521 108.54C123.457 124.784 132.97 188.961 134.9 200.897C136.964 213.819 138.176 226.617 137.323 239.785C136.605 250.799 134.676 261.505 131.534 271.658C128.528 281.441 124.534 290.486 120.181 299.223C115.245 309.068 109.457 318.175 104.925 328.327C92.2254 356.816 90.251 389.489 94.2896 421.239C97.4307 431.145 101.963 439.944 108.29 447.143C125.925 467.263 151.054 466.956 173.94 467.448C223.525 468.433 272.975 477.601 320.99 494.645C360.747 508.797 402.479 528.363 441.833 512.242C468.084 501.474 490.566 474.463 501.829 440.19C513.092 405.979 512.868 365 501.29 330.912Z" fill="url(#paint0_linear)"/>
<path d="M317.445 76.8517H254.532V214.68H317.445V76.8517Z" fill="#E2E3E4"/>
<path d="M317.445 221.018H254.532V358.847H317.445V221.018Z" fill="#E2E3E4"/>
<path d="M387.223 76.8517H324.31V214.68H387.223V76.8517Z" fill="#E2E3E4"/>
<path d="M387.223 221.018H324.31V358.847H387.223V221.018Z" fill="#E2E3E4"/>
<path d="M309.996 585.033C428.631 585.033 524.804 572.168 524.804 556.298C524.804 540.428 428.631 527.563 309.996 527.563C191.36 527.563 95.1871 540.428 95.1871 556.298C95.1871 572.168 191.36 585.033 309.996 585.033Z" fill="#F2E7D1"/>
<path d="M227.07 534.886C224.691 540.116 222.672 545.653 220.967 551.376C216.569 551.13 211.678 553.776 208.806 558.452C214.415 559.375 220.025 559.682 225.634 558.636C227.653 554.883 231.826 554.329 231.063 557.652C231.063 557.59 231.063 557.529 231.063 557.406C231.557 557.221 231.871 557.406 232.365 557.221C233.487 553.345 234.384 549.715 234.833 545.592C235.102 543.192 235.282 540.67 234.833 538.331C234.384 535.993 233.262 533.717 231.647 532.794C229.987 531.932 228.012 532.794 227.07 534.886Z" fill="black"/>
<path d="M291.957 555.991C292.181 555.929 292.405 555.929 292.63 555.868C288.097 555.868 283.251 556.914 278.898 558.575C277.911 556.114 275.937 554.391 273.873 554.206C273.828 555.068 273.828 555.929 273.783 556.791C272.616 556.729 271.764 556.667 270.597 556.606C268.802 550.699 268.847 543.808 270.687 537.962C272.796 536.178 275.219 535.87 277.597 536.855C278.405 539.131 279.796 540.916 280.604 543.192C285.944 543.684 290.207 549.099 291.957 555.991Z" fill="black"/>
<path d="M270.103 372.999C269.116 364.015 267.904 354.478 263.372 347.771C256.866 338.111 245.827 337.742 236.493 340.634C214.505 347.463 196.242 371.953 187.357 400.318C197.543 448.866 210.108 496.429 224.961 542.639C228.551 542.577 231.781 541.1 235.371 541.039C231.198 507.32 228.595 473.232 227.608 439.083C227.474 434.099 227.384 429.053 227.608 424.069C227.698 423.823 227.833 423.577 227.922 423.331C227.922 423.331 227.922 423.269 227.967 423.269C228.147 422.962 228.371 422.654 228.551 422.346C229.089 421.546 229.628 420.808 230.211 420.131C230.435 419.823 230.705 419.577 230.929 419.27C230.974 419.208 231.019 419.147 231.019 419.147C231.063 419.085 231.108 419.085 231.153 419.024C232.455 417.731 233.801 416.562 235.237 415.516C235.91 415.024 236.628 414.532 237.301 414.101C237.525 413.978 237.705 413.855 237.929 413.732C238.064 413.67 238.468 413.424 238.602 413.363C238.602 413.363 238.647 413.363 238.647 413.424C239.051 413.67 239.41 413.978 239.814 414.286C240.577 414.901 240.801 415.147 241.115 415.516C242.506 417.116 243.718 419.085 244.84 420.993C245.333 421.915 246.006 422.346 246.679 422.469C257.404 460.618 268.443 500.552 269.699 541.223C272.751 540.793 275.353 537.962 278.405 537.531C278.764 482.585 275.982 427.453 270.103 372.999Z" fill="#375954"/>
<path d="M227.563 437.79C227.429 433.237 227.384 428.622 227.563 424.131C227.653 423.884 227.788 423.638 227.877 423.392C227.877 423.392 227.877 423.331 227.922 423.331C228.102 423.023 228.326 422.715 228.506 422.408C229.044 421.608 229.583 420.869 230.166 420.193C230.39 419.885 230.66 419.639 230.884 419.331C230.929 419.27 230.974 419.208 230.974 419.208C231.019 419.147 231.063 419.147 231.108 419.085C232.41 417.793 233.756 416.624 235.192 415.578C235.865 415.086 236.583 414.593 237.256 414.163C237.48 414.039 237.66 413.916 237.884 413.793C238.019 413.732 238.423 413.486 238.557 413.424C238.557 413.424 238.602 413.424 238.602 413.486C239.006 413.732 239.365 414.04 239.769 414.347C240.532 414.962 240.756 415.209 241.07 415.578C242.461 417.178 243.673 419.147 244.795 421.054C245.288 421.977 245.961 422.408 246.635 422.531C248.026 427.392 249.372 432.314 250.763 437.298C259.02 436.191 267.231 434.037 275.084 430.53C273.783 411.332 272.123 392.135 270.058 373.06C269.071 364.077 267.86 354.539 263.327 347.833C256.821 338.172 245.782 337.803 236.448 340.695C214.46 347.525 196.197 372.014 187.312 400.38C189.601 411.209 191.979 421.915 194.492 432.622C205.531 434.775 216.48 436.99 227.563 437.79Z" fill="#375954"/>
<path d="M210.691 487.384C209.883 487.261 209.12 487.076 208.313 486.892C213.473 505.659 219.037 524.302 224.916 542.7C228.506 542.638 231.737 541.162 235.326 541.1C232.724 520.241 230.749 499.259 229.403 478.216C224.736 484.861 217.512 488.368 210.691 487.384Z" fill="#375954"/>
<path d="M260.276 474.34C265.257 496.306 268.981 518.703 269.699 541.285C272.751 540.854 275.353 538.024 278.405 537.593C278.539 514.15 278.136 490.707 277.148 467.263C271.853 470.832 266.11 473.232 260.276 474.34Z" fill="#375954"/>
<path d="M278.674 210.312L266.379 228.832C264.629 216.895 260.59 205.635 254.757 196.467C251.122 190.745 246.051 185.576 240.577 186.684C234.249 187.976 230.435 197.021 228.82 205.512C224.736 226.679 228.73 250.491 239.186 267.043C244.75 275.842 252.782 282.918 261.218 281.749C266.828 280.949 271.808 276.703 276.206 271.904C286.437 260.644 294.11 246.184 298.867 229.448C291.598 224.218 284.777 217.757 278.674 210.312Z" fill="#C7C8CA"/>
<path d="M197.812 142.997C183.318 154.196 178.113 178.931 175.196 201.39C165.728 273.996 166.311 349.002 176.946 421.239C201.627 429.238 227.159 432.929 252.513 432.745C252.423 414.101 251.391 395.703 251.301 377.06C255.834 394.965 258.436 413.486 260.5 432.253C267.276 423.454 273.379 415.393 280.155 406.594C274.097 341.31 267.142 275.596 256.641 211.419C254.442 197.882 251.974 184.223 247.442 171.793C242.91 159.364 236.044 148.104 226.935 142.074C217.826 136.044 206.607 136.229 197.812 142.997Z" fill="#E2E3E4"/>
<path d="M209.076 292.578C208.268 287.04 207.64 281.626 207.146 275.965C206.697 270.489 206.159 265.012 205.172 259.659C204.947 258.429 198.53 259.413 196.242 259.782C196.017 259.844 195.793 259.844 195.524 259.905C197.947 246.245 199.114 231.724 198.8 217.695C198.575 208.22 199.562 194.806 193.549 188.038C193.28 187.73 192.921 188.222 193.145 188.591C198.082 197.144 198.126 208.65 197.992 219.049C197.812 232.77 196.87 246.369 194.581 259.782C194.581 259.905 194.581 259.967 194.581 260.09C192.158 260.582 189.735 261.32 187.402 262.367C182.555 264.52 176.767 268.027 174.523 274.734C174.388 275.165 174.747 275.719 175.062 275.288C178.786 269.935 183.228 266.304 188.389 264.151C191.036 263.043 193.774 262.243 196.511 261.813C198.889 261.444 201.312 261.628 203.691 261.321C205.486 271.842 205.127 283.164 207.64 293.378C202.255 297.316 195.479 297.685 189.556 297.562C183.453 297.439 175.062 297.131 170.395 290.794C170.125 290.424 169.722 290.978 169.991 291.347C171.831 294.424 174.837 296.024 177.53 297.193C181.344 298.854 185.338 299.593 189.331 299.839C193.28 300.085 197.274 299.777 201.133 298.731C203.691 298.054 206.652 297.131 208.761 294.855C208.941 294.793 209.076 294.609 209.165 294.362C209.255 294.239 209.345 294.116 209.434 293.993C209.883 293.563 209.524 292.64 209.076 292.578Z" fill="#ABADB0"/>
<path d="M235.596 59.0079C236.942 61.6537 237.525 65.284 236.538 68.2374C236.583 67.1299 236.358 65.9608 235.91 65.0379C235.82 69.345 233.801 73.4675 230.884 75.2519C229.627 75.9903 228.192 76.298 226.935 75.5596C225.768 74.8212 224.961 73.2214 224.467 71.6216C222.762 66.3915 223.166 59.9308 225.454 55.1314C226.531 52.8548 228.82 50.4551 230.57 52.8548C232.23 54.9468 234.294 56.362 235.596 59.0079Z" fill="#ABADB0"/>
<path d="M198.8 136.906C199.383 137.152 199.966 137.398 200.505 137.582C202.12 138.198 203.736 138.752 205.351 139.305C213.697 142.136 222.852 144.166 231.422 142.136C228.999 131.122 227.743 119.923 227.743 108.294C231.333 105.402 234.429 102.141 236.762 97.403C232.23 85.8352 231.378 70.8833 235.326 58.9463C227.698 54.3315 218.903 54.27 210.826 57.2235C209.345 61.8998 207.999 66.5761 206.787 71.3755C205.486 71.9908 204.768 73.8367 204.633 75.7442C204.543 76.7287 204.633 78.0208 204.992 79.0668C200.819 97.8337 198.755 117.339 198.8 136.906Z" fill="#F3AC71"/>
<path d="M229.852 81.6511C227.877 83.4355 225.185 83.5586 223.076 81.9588C223.39 83.8662 224.243 85.466 225.454 86.4505C225.993 86.8812 226.621 87.1889 227.249 87.0658C228.147 86.8812 228.82 85.8967 229.179 84.7892C229.538 83.6816 229.807 82.8817 229.852 81.6511Z" fill="#D6562B"/>
<path d="M233.217 88.0503C232.993 85.7737 232.41 83.4355 231.198 81.7742C231.153 81.7127 231.063 81.8357 231.108 81.8973C233.128 85.0968 233.531 90.0808 233.083 94.1418C232.813 96.2954 231.961 98.3259 230.525 99.3104C229.044 100.356 227.474 100.049 225.948 99.495C225.858 99.4335 225.768 99.6796 225.858 99.7411C228.91 101.71 232.41 99.5565 233.217 95.0033C233.531 92.7882 233.442 90.2654 233.217 88.0503Z" fill="#EF8B46"/>
<path d="M237.166 58.0849C229.538 55.1314 221.461 54.7623 213.742 57.2235C214.819 60.3 215.133 63.8073 214.64 67.1299C214.146 70.4526 212.845 73.5291 210.96 75.7442C211.05 74.6982 210.87 73.6522 210.511 72.7292C210.467 73.6522 209.928 74.3905 209.3 74.5751C209.479 73.406 208.851 72.1754 208.043 71.8678C207.236 71.5601 206.293 72.1139 205.755 73.0368C205.216 73.9598 205.082 75.252 205.216 76.3595C205.351 77.5286 205.755 78.5746 206.204 79.5591C206.518 80.1744 206.832 80.7897 207.056 81.4665C207.281 82.1434 207.325 83.0048 207.101 83.6201C206.114 83.2509 205.127 82.8818 204.095 82.5126C202.793 79.0669 201.716 75.4365 201.133 71.6216C200.594 67.8067 200.729 63.7457 201.941 60.2385C203.152 56.7312 205.575 53.9008 208.358 53.4086C208.806 51.5011 209.479 49.8398 210.601 48.5477C210.377 49.5937 210.152 50.6397 209.928 51.6857C212.71 47.8708 216.21 44.8558 220.069 43.8713C223.929 42.8868 228.192 44.0559 231.153 47.6247C229.762 46.8248 228.236 46.5172 226.756 46.7017C231.019 49.0399 234.833 52.8548 237.166 58.0849Z" fill="#E0E9ED"/>
<path d="M225.948 62.5151C225.813 63.0689 225.679 63.6227 225.499 64.238C225.454 63.6842 225.499 63.1304 225.454 62.5767C223.794 62.0229 222.044 62.3305 220.518 63.3766C220.428 64.0534 220.339 64.7918 220.249 65.4686C222.179 65.0379 224.198 64.9763 226.127 65.5301L226.621 63.0689C226.397 62.8228 226.217 62.6997 225.948 62.5151Z" fill="#E2E3E4"/>
<path d="M233.487 64.2995C232.589 63.5611 231.602 63.1304 230.57 63.0074C230.39 63.5611 230.211 64.0534 230.076 64.6072C230.031 64.0534 230.031 63.5611 229.986 63.0074C229.807 63.0689 229.717 63.1304 229.538 63.1919C229.538 64.1149 229.538 65.0994 229.583 66.0224C230.794 65.284 233.128 66.2685 233.038 66.207L233.487 64.2995Z" fill="#E2E3E4"/>
<path d="M223.57 69.6526C223.57 69.345 223.48 69.1604 223.255 69.0373C223.121 68.9758 222.941 69.0989 222.852 69.2219C222.807 69.2835 222.807 69.345 222.807 69.468C222.762 69.7142 222.762 70.0218 222.852 70.2679C222.941 70.6987 223.345 70.6987 223.48 70.2679C223.525 70.0834 223.57 69.8372 223.57 69.6526Z" fill="#375954"/>
<path d="M231.108 69.9603C231.108 69.7757 231.108 69.5296 231.019 69.345C230.929 69.0374 230.615 68.9143 230.48 69.222C230.435 69.345 230.39 69.4681 230.39 69.6527C230.39 69.7757 230.345 69.8988 230.39 69.9603C230.39 70.0219 230.435 70.0834 230.48 70.1449C230.48 70.2065 230.525 70.2065 230.57 70.268C230.615 70.5141 230.884 70.5756 231.019 70.4526C231.108 70.391 231.108 70.2065 231.108 69.9603Z" fill="#375954"/>
<path d="M220.472 81.1589L220.249 80.8512C220.249 80.8512 220.204 80.8512 220.249 80.8512L220.472 81.1589C220.472 81.2204 220.472 81.2204 220.472 81.1589Z" fill="#375954"/>
<path d="M224.691 72.8523C224.108 73.9598 223.39 75.8673 222.178 75.1904C220.967 74.5136 220.518 72.7907 220.428 71.1909C220.428 71.1294 220.384 71.1294 220.384 71.1909C220.339 72.9138 220.877 75.2519 222.268 75.8057C223.525 76.298 224.557 74.3905 224.961 72.9753C225.006 72.7907 224.781 72.7292 224.691 72.8523Z" fill="#EF8B46"/>
<path d="M232.14 72.1754C232.14 72.1139 232.096 72.1754 232.096 72.1754C232.096 72.9138 231.961 73.8367 231.288 73.5906C230.749 73.3445 230.48 72.5446 230.256 71.9293C230.211 71.8062 230.031 71.8678 230.031 71.9908C230.031 72.9753 230.615 74.0829 231.378 74.1444C232.14 74.1444 232.23 72.9753 232.14 72.1754Z" fill="#EF8B46"/>
<path d="M235.999 74.0213C235.91 73.7752 235.82 73.5291 235.64 73.406C235.192 73.0369 234.608 73.4676 234.115 73.7752C232.679 74.6366 230.884 74.1444 229.852 72.5446C228.82 70.9448 228.64 68.4221 229.448 66.5761C229.358 65.8378 228.865 65.1609 228.326 65.284C227.788 65.4071 227.339 66.0839 227.159 66.7607C226.98 67.4991 226.98 68.299 227.025 69.0374C227.115 70.6372 227.429 72.2985 227.743 73.8367C226.98 73.7137 226.082 74.0213 225.499 74.4521C225.32 74.5751 225.185 74.8212 225.185 75.0674C224.467 76.0518 224.288 77.7132 224.736 79.0053C225.185 80.4205 226.217 81.3435 227.294 81.7127C228.371 82.0818 229.538 82.0203 230.66 81.8357C232.185 81.5896 233.756 81.0358 234.967 79.6822C236.044 78.3285 236.673 75.8673 235.999 74.0213Z" fill="url(#paint1_linear)"/>
<path d="M232.589 59.7462C231.019 58.7002 229.224 58.6387 227.518 58.5771C226.082 58.5156 224.377 58.2695 223.031 59.254C222.986 59.3155 223.031 59.377 223.076 59.377C224.512 58.5156 226.127 58.8233 227.653 58.8848C229.313 59.0079 230.929 59.3155 232.499 59.9308C232.634 59.9923 232.679 59.8077 232.589 59.7462Z" fill="#EF8B46"/>
<path d="M232.185 61.0999C231.288 60.0539 229.762 60.1769 228.685 60.1154C227.339 59.9923 225.903 59.5001 224.557 60.0539C224.512 60.0539 224.557 60.1154 224.557 60.1154C225.813 59.6847 227.115 60.2385 228.371 60.3615C229.672 60.4846 230.929 60.5461 232.096 61.2845C232.185 61.2845 232.275 61.1614 232.185 61.0999Z" fill="#EF8B46"/>
<path d="M224.691 75.4365C222.627 79.9283 223.076 85.8967 220.518 90.0193C219.396 91.8652 217.467 92.7882 215.941 91.1268C214.46 89.527 214.46 86.512 214.415 84.1739C214.415 84.1124 214.371 84.1124 214.371 84.1739C214.326 86.512 214.281 89.527 215.627 91.2499C216.839 92.7882 218.678 92.7266 219.935 91.373C221.281 89.9578 222.089 87.6811 222.582 85.5276C222.941 84.1123 223.076 82.6356 223.3 81.1589C223.659 79.1284 224.198 77.2824 224.736 75.375C224.781 75.4365 224.736 75.375 224.691 75.4365Z" fill="#EF8B46"/>
<path d="M236.717 74.0829C236.717 71.7447 235.326 69.8372 233.621 69.8372C232.365 69.8372 231.288 70.8833 230.839 72.2985C230.525 71.7447 229.986 71.3755 229.448 71.3755C228.909 71.3755 228.371 71.7447 228.057 72.2985C227.518 71.2525 226.576 70.5756 225.589 70.5756C223.884 70.5756 222.493 72.4831 222.493 74.8212C222.493 77.1594 223.884 79.0668 225.589 79.0668C227.294 79.0668 228.685 77.1594 228.685 74.8212C228.685 74.0829 228.55 73.3445 228.281 72.7292C228.55 72.1754 228.999 71.8678 229.493 71.8678C229.986 71.8678 230.48 72.2369 230.749 72.8523C230.704 73.0368 230.66 73.2214 230.66 73.406C230.749 73.4676 230.839 73.5906 230.974 73.6521C231.153 71.8062 232.32 70.3295 233.711 70.3295C235.237 70.3295 236.493 72.0524 236.493 74.1444C236.493 74.5751 236.448 74.9443 236.358 75.375C236.403 75.7442 236.358 76.0518 236.358 76.421C236.538 75.6827 236.717 74.9443 236.717 74.0829ZM228.326 74.8212C228.326 76.9133 227.07 78.6361 225.544 78.6361C224.018 78.6361 222.762 76.9133 222.762 74.8212C222.762 72.7292 224.018 71.0063 225.544 71.0063C227.115 71.0679 228.326 72.7292 228.326 74.8212Z" fill="#512519"/>
<path d="M237.839 160.472C237.839 160.41 237.839 160.349 237.839 160.349C238.423 158.134 238.961 155.919 239.589 153.827L231.512 132.045C230.345 135.429 228.461 138.075 226.127 139.982C216.345 138.075 206.697 134.567 197.498 129.583C196.107 135.798 194.626 141.52 193.235 147.735C200.056 154.196 206.877 159.918 214.012 165.394C223.749 180.162 232.185 196.652 238.961 214.25C240.038 196.344 240.262 178.008 237.839 160.472Z" fill="#577483"/>
<path d="M214.235 165.456C214.191 165.456 214.146 165.456 214.101 165.517C214.146 165.579 214.191 165.64 214.235 165.701C214.28 165.579 214.235 165.517 214.235 165.456Z" fill="#496672"/>
<path d="M237.839 160.472V160.41C236.987 162.81 236.089 165.271 235.237 167.671C232.993 159.057 230.121 150.935 226.89 142.936C224.916 152.165 223.839 162.195 224.108 171.855C221.012 169.824 217.871 168.409 214.729 166.44C217.153 170.194 219.531 174.07 221.819 178.008C227.877 182.377 233.801 187.053 239.769 191.852C239.724 181.269 239.23 170.686 237.839 160.472Z" fill="#496672"/>
<path d="M232.589 180.777C233.828 180.777 234.833 179.4 234.833 177.7C234.833 176.001 233.828 174.624 232.589 174.624C231.35 174.624 230.345 176.001 230.345 177.7C230.345 179.4 231.35 180.777 232.589 180.777Z" fill="#C7C8CA"/>
<path d="M237.076 203.974C238.316 203.974 239.32 202.597 239.32 200.897C239.32 199.198 238.316 197.821 237.076 197.821C235.837 197.821 234.833 199.198 234.833 200.897C234.833 202.597 235.837 203.974 237.076 203.974Z" fill="#C7C8CA"/>
<path d="M235.73 270.55C235.282 269.381 234.743 268.273 233.935 267.35C232.903 266.181 231.737 265.197 230.525 264.397C229.628 263.72 228.73 263.166 227.877 262.674C227.743 262.613 227.608 262.551 227.474 262.49C230.031 262.305 232.769 263.228 234.205 265.751C235.416 267.904 237.615 266.12 236.852 263.659C235.282 258.675 230.256 257.198 226.711 257.321C224.602 257.383 222.448 258.182 220.473 259.351C216.928 260.767 212.89 263.843 211.992 268.397C211.947 268.581 211.947 268.766 211.903 268.95C211.14 272.827 213.653 277.318 216.48 278.611C218.589 279.595 220.743 279.164 222.852 278.611C224.512 278.18 225.23 277.995 226.083 279.287C226.262 279.595 226.442 279.903 226.576 280.21C228.64 284.394 233.531 280.703 231.916 276.519C232.185 275.842 232.32 275.165 232.455 274.365C232.589 274.796 232.724 275.165 232.903 275.596C233.98 278.488 237.435 276.519 236.717 273.38C236.493 272.396 236.134 271.412 235.73 270.55Z" fill="#F3AC71"/>
<path d="M286.437 204.405C283.745 208.404 281.456 212.957 279.706 217.88C282.039 224.956 286.886 230.248 292.495 231.294C295.187 227.171 297.252 222.187 299.047 217.203C294.963 212.465 290.521 209.143 286.437 204.405Z" fill="#496672"/>
<path d="M291.867 178.931C290.251 178.439 289.13 181.454 290.655 182.684C291.194 183.115 291.642 183.792 292.001 184.53C291.598 184.223 291.104 183.977 290.565 183.792C289.219 183.238 287.963 184.961 288.277 186.807C288.995 191.545 289.847 196.529 289.489 201.39C289.174 205.82 288.322 209.819 288.815 214.311C289.085 216.588 291.328 217.88 292.719 216.649C296.489 213.327 297.341 208.712 297.611 203.543C300.079 193.637 300.348 181.638 291.867 178.931Z" fill="#EF8B46"/>
<path d="M216.928 261.444C212.306 262.797 207.684 264.212 203.018 265.566C201.223 273.196 202.479 281.133 206.069 287.471C210.287 286.733 214.012 286.179 218.23 285.44L216.928 261.444Z" fill="#577483"/>
<path d="M225.544 317.498C212.979 319.159 200.505 318.975 189.017 317.129C188.972 319.836 186.953 322.974 186.863 325.681C198.979 328.512 212.71 328.327 226.441 326.051L225.544 317.498Z" fill="#ABADB0"/>
<path d="M279.257 315.652C278.898 313.375 278.674 311.037 278.405 308.761C273.558 309.745 268.757 310.422 264.045 310.73C264.315 313.437 265.526 316.944 265.795 319.652C270.552 319.652 275.084 319.098 279.616 318.113C279.527 317.313 279.392 316.452 279.257 315.652Z" fill="#ABADB0"/>
<path d="M344.503 242.185C347.51 241.077 350.067 237.816 351.1 233.755C352.087 229.694 351.503 224.956 349.574 221.572C349.26 221.018 348.811 220.403 348.273 220.403C347.644 220.403 347.196 221.203 346.881 221.879C345.76 224.218 343.651 227.848 343.381 230.678C343.202 232.34 343.74 234.616 343.92 236.278C344.144 238.247 344.324 240.216 344.503 242.185Z" fill="#F8DB94"/>
<path d="M347.151 196.836C345.849 208.035 342.574 218.864 337.727 228.032C339.029 229.448 340.913 229.817 342.484 228.955C342.484 230.801 342.529 233.632 342.529 233.263C345.804 233.324 347.689 226.863 348.856 223.541C348.946 231.232 346.837 236.831 342.977 239.046C343.292 245.199 343.157 252.091 344.324 258.059C344.728 260.213 345.266 262.49 346.478 263.905C347.914 265.566 349.978 265.751 351.773 265.012C353.568 264.274 355.093 262.797 356.619 261.259C358.818 265.258 360.882 269.504 363.081 273.504C370.53 263.474 376.677 251.66 381.165 238.8C374.613 232.463 370.171 222.31 369.183 211.419C368.735 206.681 368.869 201.513 366.895 197.636C364.696 193.329 360.478 191.791 356.709 192.529C352.939 193.268 350.516 194.375 347.151 196.836Z" fill="#F3AC71"/>
<path d="M369.228 211.481C368.78 206.743 368.914 201.574 366.94 197.698C364.741 193.391 360.523 191.852 356.754 192.591C353.478 193.206 351.189 194.068 348.452 195.975C348.766 205.451 349.17 214.926 349.484 224.464C349.933 236.954 350.292 249.999 346.657 261.505C346.478 262.12 346.253 262.736 346.029 263.351C346.163 263.597 346.343 263.843 346.522 264.028C347.958 265.689 350.023 265.874 351.817 265.135C353.612 264.397 355.138 262.92 356.664 261.382C358.863 265.382 360.927 269.627 363.126 273.627C370.575 263.597 376.722 251.783 381.21 238.923C374.658 232.586 370.216 222.372 369.228 211.481Z" fill="#EF8B46"/>
<path d="M348.766 204.835C348.048 204.282 347.151 204.405 346.343 204.712C345.67 204.958 344.548 205.635 344.458 206.743C344.413 207.297 344.772 207.85 345.176 207.604C345.715 207.358 346.074 206.804 346.657 206.62C347.106 206.435 347.689 206.374 348.093 206.62C348.946 207.174 349.619 205.451 348.766 204.835Z" fill="#B53B25"/>
<path d="M381.658 465.356C381.165 486.83 380.716 508.304 380.222 529.779C383.049 529.779 386.056 528.794 388.883 528.794C392.473 510.396 395.704 490.584 399.293 472.124C399.922 468.802 400.55 465.171 399.473 462.095C398.037 458.034 394.088 456.742 390.902 458.034C387.716 459.326 384.037 462.279 381.658 465.356Z" fill="#454545"/>
<path d="M350.382 409.486C337.548 418.162 324.714 426.838 311.88 435.514C308.963 437.483 305.822 439.821 304.745 444.005C303.713 448.004 304.925 452.373 306.181 456.249C315.335 484.615 327.182 511.319 341.272 535.562C344.997 537.039 349.035 535.809 352.58 533.655C347.196 513.473 340.689 492.491 335.304 472.309C353.074 475.324 370.395 477.908 388.3 476.493C397.319 475.755 406.473 473.847 414.64 468.433C422.807 463.018 429.897 453.788 432.724 442.036C435.551 430.222 433.307 415.947 426.217 408.256C418.095 399.518 406.608 401.118 396.377 403.149C380.581 406.287 364.606 399.887 350.382 409.486Z" fill="#375954"/>
<path d="M342.529 452.619C356.889 463.633 374.434 465.233 390.544 460.618C405.845 456.249 420.07 446.835 433.577 436.006C434.519 425.669 432.006 414.593 426.083 408.194C417.961 399.457 406.474 401.057 396.242 403.087C380.537 406.225 364.562 399.887 350.337 409.486C341.542 415.455 332.747 421.362 323.952 427.33C328.349 437.79 334.676 446.528 342.529 452.619Z" fill="#375954"/>
<path d="M329.604 470.832C321.258 465.664 312.822 459.941 306.495 450.896C305.732 449.85 305.059 448.743 304.386 447.574C304.43 450.527 305.328 453.542 306.225 456.249C315.38 484.615 327.226 511.319 341.316 535.562C345.041 537.039 349.079 535.809 352.624 533.655C347.419 514.211 341.227 494.091 335.932 474.586C333.778 473.355 331.669 472.124 329.604 470.832Z" fill="#375954"/>
<path d="M436.09 382.597C430.391 350.971 423.794 319.652 416.345 288.763C412.038 270.981 406.339 251.476 393.909 243.661C393.415 233.693 386.908 225.756 379.639 226.002C370.664 243.723 363.215 262.92 357.516 283.041C355.273 285.687 353.523 289.255 352.401 292.947C350.382 299.531 349.843 306.792 349.17 313.868C346.792 338.541 342.17 362.785 335.529 385.92C333.06 394.473 325.522 408.44 326.374 417.547C327.182 425.73 333.868 431.945 339.836 434.345C339.971 435.514 340.15 436.683 340.42 437.79C343.112 448.374 352.266 452.619 360.343 454.342C375.421 457.542 390.992 456.742 405.845 451.881C418.724 447.697 432.32 438.898 437.077 421.977C440.622 409.548 438.468 395.58 436.09 382.597Z" fill="#67923D"/>
<path d="M341.945 533.655C341.317 536.732 341.586 540.177 342.708 542.946C341.362 545.469 339.747 547.93 338.4 550.453C335.259 551.868 332.163 554.452 329.74 557.59C329.291 558.144 328.842 559.067 329.201 559.744C329.381 560.052 329.695 560.175 329.964 560.298C334.676 561.836 339.702 561.282 344.413 559.621C349.125 558.021 353.612 555.375 358.1 552.73C358.459 552.483 358.908 552.237 359.042 551.745C359.222 551.191 359.042 550.514 358.863 549.961C357.875 546.823 356.798 543.746 355.677 540.67C354.734 538.147 353.747 535.624 352.356 533.593C350.965 531.563 349.08 529.963 347.061 529.717C345.042 529.471 342.484 530.948 341.945 533.655Z" fill="#C7C8CA"/>
<path d="M380.133 526.764C379.056 532.178 378.248 537.716 377.754 543.254C377.665 544.361 377.575 545.653 378.068 546.576C378.652 547.746 379.818 547.93 380.851 547.992C385.652 548.299 390.453 547.684 395.12 546.207C395.659 546.023 396.287 545.777 396.601 545.1C396.915 544.423 396.736 543.5 396.511 542.762C395.659 540.054 393.954 537.901 391.934 536.978C391.845 534.886 391.216 532.732 390.498 530.886C390.588 528.979 390.498 527.563 390.319 525.718C390.274 525.225 390.184 524.671 389.96 524.241C389.466 523.502 388.659 523.687 387.985 523.933C385.517 524.795 382.601 525.964 380.133 526.764Z" fill="#C7C8CA"/>
<path d="M345.894 212.527C345.266 212.588 344.817 213.942 344.997 214.68C344.997 214.742 345.042 214.742 345.087 214.68C345.266 214.127 345.446 212.773 346.029 212.896C346.567 213.019 346.388 214.127 346.702 214.557C346.747 214.619 346.837 214.557 346.881 214.496C346.881 213.696 346.522 212.465 345.894 212.527Z" fill="#375954"/>
<path d="M369.587 203.482C369.273 200.036 368.286 196.59 366.401 194.314C365.235 192.898 363.799 191.976 362.273 191.483C361.51 191.237 360.702 191.053 359.94 190.991C359.895 190.929 359.85 190.868 359.805 190.806C358.818 189.33 357.068 188.899 355.811 189.945C357.157 188.837 357.247 186.007 356.215 184.407C355.228 182.807 353.478 182.315 351.952 182.746C350.426 183.115 349.08 184.223 347.734 185.33C348.497 184.284 348.362 182.377 347.599 181.269C346.881 180.162 345.76 179.669 344.683 179.485C342.933 179.116 341.093 179.362 339.567 180.531C338.041 181.7 336.83 183.853 336.785 186.315C334.586 187.607 333.06 190.806 333.15 194.068C333.24 197.329 334.9 200.405 337.189 201.451C337.368 202.928 338.4 204.036 339.477 204.036C340.554 204.036 341.542 202.805 341.721 201.328C342.484 202.866 344.189 203.174 345.49 202.436C346.074 202.067 346.612 201.574 347.106 201.021C347.779 202.559 348.676 203.974 349.708 205.143C349.619 205.82 349.664 206.374 349.664 207.051C349.708 207.727 349.843 208.466 350.202 208.896C350.561 209.389 351.144 209.635 351.593 209.327C352.042 209.02 352.311 208.22 352.042 207.604C352.85 207.358 353.388 206.189 353.209 205.143C353.657 206.681 354.061 208.281 354.061 209.942C354.106 211.788 353.568 213.696 352.401 214.68C352.76 216.096 353.388 217.326 354.375 218.003C358.908 214.496 364.203 213.388 369.318 214.434C369.587 210.804 369.902 206.866 369.587 203.482Z" fill="#D6562B"/>
<path d="M369.318 214.25C369.587 210.804 369.902 206.866 369.587 203.42C369.273 199.974 368.286 196.529 366.401 194.252C365.235 192.837 363.799 191.914 362.273 191.422C362.228 191.422 362.183 191.422 362.183 191.36C360.792 195.79 358.279 199.482 355.183 201.697C353.253 203.051 351.144 203.851 348.991 204.036C349.215 204.343 349.484 204.651 349.708 204.897C349.619 205.574 349.664 206.128 349.664 206.804C349.708 207.481 349.843 208.22 350.202 208.65C350.561 209.143 351.144 209.389 351.593 209.081C352.042 208.773 352.311 207.973 352.042 207.358C352.85 207.112 353.388 205.943 353.209 204.897C353.657 206.435 354.061 208.035 354.061 209.696C354.106 211.542 353.568 213.45 352.401 214.434C352.76 215.849 353.388 217.08 354.375 217.757C358.908 214.373 364.203 213.204 369.318 214.25Z" fill="#B53B25"/>
<path d="M437.122 422.1C440.622 409.609 438.468 395.642 436.135 382.597C430.436 350.971 423.839 319.652 416.39 288.763C414.281 280.087 411.858 270.981 408.493 263.105C404.903 264.151 401.447 265.997 398.172 268.643C382.96 281.256 377.934 308.638 378.652 333.004C379.37 357.37 384.485 381.428 383.633 405.794C383.184 418.716 380.761 432.253 374.12 441.482C369.094 448.497 362.094 452.189 354.869 452.865C356.709 453.542 358.593 454.096 360.388 454.465C375.466 457.665 391.037 456.865 405.89 452.004C418.769 447.82 432.365 439.021 437.122 422.1Z" fill="#375954"/>
<path d="M378.427 378.844C383.722 355.093 381.883 328.45 373.446 306.484C372.684 304.515 371.696 302.361 370.081 301.992C366.805 301.254 365.594 307.653 365.728 312.206C366.267 330.973 365.459 349.802 363.305 368.384C362.138 378.536 360.523 388.75 356.754 397.611C352.984 406.471 346.792 413.855 339.388 415.455C336.516 416.07 333.15 416.009 331.176 418.962C326.374 426.223 334.182 432.806 338.445 433.852C345.042 435.514 349.888 431.268 354.869 425.915C365.908 413.916 374.299 397.303 378.427 378.844Z" fill="#375954"/>
<path d="M439.859 548.484H443.135C443.135 548.484 414.999 527.748 403.96 488.799L393.505 483.877C393.505 483.877 404.589 510.15 407.281 522.026C409.973 533.901 373.761 545.407 373.761 545.407V548.484C373.761 548.484 408.178 531.132 415.942 536.239C423.705 541.285 428.192 551.991 428.192 551.991H431.468C431.468 551.991 420.698 539.685 420.698 535.993C420.698 532.24 439.859 548.484 439.859 548.484Z" fill="#E2E3E4"/>
<path d="M403.96 488.738L393.505 483.815C393.505 483.815 397.678 493.66 401.492 504.059C404.005 503.69 406.518 503.32 409.031 503.013C407.101 498.583 405.396 493.845 403.96 488.738Z" fill="#F3AC71"/>
<path d="M430.57 466.217H359.356C354.241 466.217 350.067 471.94 350.067 478.954V480.185C350.067 487.2 354.241 492.922 359.356 492.922H430.57C435.686 492.922 439.859 487.2 439.859 480.185V478.954C439.859 471.878 435.686 466.217 430.57 466.217Z" fill="#E2D88A"/>
<path d="M433.756 466.217H386.998C383.633 466.217 380.895 471.94 380.895 478.954V480.185C380.895 487.199 383.633 492.922 386.998 492.922H433.756C437.122 492.922 439.859 487.199 439.859 480.185V478.954C439.859 471.878 437.122 466.217 433.756 466.217Z" fill="#FEF29C"/>
<path d="M372.235 556.052C375.209 556.052 377.62 552.746 377.62 548.668C377.62 544.591 375.209 541.285 372.235 541.285C369.261 541.285 366.85 544.591 366.85 548.668C366.85 552.746 369.261 556.052 372.235 556.052Z" fill="#454545"/>
<path d="M428.416 563.497C431.39 563.497 433.801 560.192 433.801 556.114C433.801 552.036 431.39 548.73 428.416 548.73C425.442 548.73 423.031 552.036 423.031 556.114C423.031 560.192 425.442 563.497 428.416 563.497Z" fill="#454545"/>
<path d="M442.192 559.313C445.166 559.313 447.577 556.008 447.577 551.93C447.577 547.852 445.166 544.546 442.192 544.546C439.218 544.546 436.808 547.852 436.808 551.93C436.808 556.008 439.218 559.313 442.192 559.313Z" fill="#454545"/>
<path d="M456.552 352.017C456.417 346.11 451.84 343.833 446.949 343.956C443.942 344.018 441.519 344.633 438.558 345.556C429.448 348.448 422.134 348.079 413.294 343.956C410.557 342.664 408.313 341.249 405.441 340.818C402.569 340.387 395.614 340.51 394.313 348.694C394.133 349.802 392.742 381.182 395.793 399.272C408.672 410.901 425.006 413.363 439.545 406.41C442.551 404.994 445.558 403.087 447.622 399.764C450.045 395.888 450.898 390.658 451.436 385.612C452.334 377.244 456.776 360.446 456.552 352.017Z" fill="#E2D88A"/>
<path d="M460.052 363.4C459.917 357.493 458.93 350.54 454.981 348.14C452.244 346.479 449.058 347.709 446.141 348.632C437.032 351.524 427.294 350.848 418.409 346.725C415.672 345.433 415.852 344.325 413.025 343.895C410.153 343.464 403.197 343.587 401.896 351.771C401.717 352.878 400.326 384.259 403.377 402.349C416.256 413.978 432.589 416.439 447.128 409.486C450.135 408.071 453.141 406.164 455.206 402.841C457.629 398.965 458.481 393.734 459.02 388.689C459.917 380.321 460.231 371.829 460.052 363.4Z" fill="#FEF29C"/>
<path d="M446.096 380.321C439.276 380.628 432.455 380.936 425.634 381.305C424.647 381.367 423.525 381.49 422.897 382.536C422.313 383.459 422.313 384.751 422.313 385.92C422.358 391.642 422.358 397.98 422.358 403.702C424.557 405.548 427.16 406.41 429.718 406.287C431.871 421.792 431.019 438.098 427.205 453.05C426.083 457.419 424.692 461.787 422.224 464.987C419.756 468.186 415.358 471.263 412.172 469.602C411.409 473.97 411.768 478.893 413.698 482.523C415.627 486.153 419.217 488.307 422.313 486.953C425.455 485.6 427.564 480.431 426.262 476.247C437.75 456.68 442.686 430.468 439.006 406.164C441.564 406.04 444.212 404.564 445.558 401.61C448.385 395.396 444.481 387.151 446.096 380.321Z" fill="#454545"/>
<path d="M467.77 221.203C470.822 230.617 475.04 239.662 481.277 245.446C487.514 251.168 496.085 253.014 502.592 247.907C508.964 242.923 512.105 232.832 514.618 223.418C518.881 207.481 522.695 191.299 526.061 174.932C529.112 159.918 531.625 143.182 526.375 129.399C521.394 116.231 510.22 109.217 499.406 108.663C457.629 106.571 454.712 180.838 467.77 221.203Z" fill="#F7CBBF"/>
<path d="M124.893 256.829C119.778 283.041 101.469 301.315 95.9948 327.343C94.4691 334.603 93.9755 342.295 92.0011 349.309C90.0266 356.385 85.9432 363.031 80.5135 364.138C75.3531 365.123 70.2375 360.692 67.3208 354.786C64.404 348.817 63.327 341.618 62.5193 334.542C57.1345 286.856 63.4616 236.893 80.1994 194.437C83.2059 186.868 86.706 179.239 92.0908 174.87C118.656 153.457 128.932 235.97 124.893 256.829Z" fill="url(#paint2_linear)"/>
<defs>
<linearGradient id="paint0_linear" x1="307.314" y1="-4.79985" x2="290.446" y2="583.206" gradientUnits="userSpaceOnUse">
<stop stop-color="#F8DB94"/>
<stop offset="1" stop-color="#C6A9B5"/>
</linearGradient>
<linearGradient id="paint1_linear" x1="223.78" y1="66.8387" x2="240.401" y2="80.0407" gradientUnits="userSpaceOnUse">
<stop offset="0.0837838" stop-color="#F3AC71"/>
<stop offset="1" stop-color="#EB6342"/>
</linearGradient>
<linearGradient id="paint2_linear" x1="93.187" y1="-9.40274" x2="93.187" y2="411.913" gradientUnits="userSpaceOnUse">
<stop stop-color="#F8DB94"/>
<stop offset="1" stop-color="#C6A9B5"/>
</linearGradient>
</defs>
</svg>
