<svg width="644" height="603" viewBox="0 0 644 603" fill="none" xmlns="http://www.w3.org/2000/svg">
<g clip-path="url(#clip0)">
<path d="M15.7736 0V603H644V0H15.7736ZM631.301 548.792C631.301 572.05 617.57 590.878 600.608 590.878H59.1212C42.1591 590.878 28.4279 572.05 28.4279 548.792V54.2085C28.4279 30.9499 42.1591 12.1215 59.1212 12.1215H600.608C617.57 12.1215 631.301 30.9499 631.301 54.2085V548.792Z" fill="#84A4A4"/>
<path d="M516.29 330.912C502.2 289.502 472.629 258.49 465.449 213.88C457.955 167.24 476.219 112.54 455.981 73.7137C440.544 44.0559 409.582 39.4411 383.286 44.7328C356.99 50.0244 330.65 62.3305 304.444 56.1775C282.59 51.0704 263.07 33.5342 241.217 28.7348C201.818 20.059 147.432 54.6392 140.521 108.54C138.457 124.784 147.97 188.961 149.9 200.897C151.964 213.819 153.176 226.617 152.323 239.785C151.605 250.799 149.676 261.505 146.534 271.658C143.528 281.441 139.534 290.486 135.181 299.223C130.245 309.068 124.457 318.175 119.925 328.327C107.225 356.816 105.251 389.489 109.29 421.239C112.431 431.145 116.963 439.944 123.29 447.143C140.925 467.263 166.054 466.956 188.94 467.448C238.525 468.433 287.975 477.601 335.99 494.645C375.747 508.797 417.479 528.363 456.833 512.242C483.084 501.474 505.566 474.463 516.829 440.19C528.092 405.979 527.868 365 516.29 330.912Z" fill="url(#paint0_linear)"/>
<path d="M332.445 76.8517H269.532V214.68H332.445V76.8517Z" fill="#E2E3E4"/>
<path d="M332.445 221.018H269.532V358.847H332.445V221.018Z" fill="#E2E3E4"/>
<path d="M402.223 76.8517H339.31V214.68H402.223V76.8517Z" fill="#E2E3E4"/>
<path d="M402.223 221.018H339.31V358.847H402.223V221.018Z" fill="#E2E3E4"/>
<path d="M324.996 585.033C443.631 585.033 539.804 572.168 539.804 556.298C539.804 540.428 443.631 527.563 324.996 527.563C206.36 527.563 110.187 540.428 110.187 556.298C110.187 572.168 206.36 585.033 324.996 585.033Z" fill="#375954"/>
<path d="M242.07 534.886C239.691 540.116 237.672 545.653 235.967 551.376C231.569 551.13 226.678 553.776 223.806 558.452C229.415 559.375 235.025 559.682 240.634 558.636C242.653 554.883 246.826 554.329 246.063 557.652C246.063 557.59 246.063 557.529 246.063 557.406C246.557 557.221 246.871 557.406 247.365 557.221C248.487 553.345 249.384 549.715 249.833 545.592C250.102 543.192 250.282 540.67 249.833 538.331C249.384 535.993 248.262 533.717 246.647 532.794C244.987 531.932 243.012 532.794 242.07 534.886Z" fill="black"/>
<path d="M306.957 555.991C307.181 555.929 307.405 555.929 307.63 555.868C303.097 555.868 298.251 556.914 293.898 558.575C292.911 556.114 290.937 554.391 288.873 554.206C288.828 555.068 288.828 555.929 288.783 556.791C287.616 556.729 286.764 556.667 285.597 556.606C283.802 550.699 283.847 543.808 285.687 537.962C287.796 536.178 290.219 535.87 292.597 536.855C293.405 539.131 294.796 540.916 295.604 543.192C300.944 543.684 305.207 549.099 306.957 555.991Z" fill="black"/>
<path d="M285.103 372.999C284.116 364.015 282.904 354.478 278.372 347.771C271.866 338.111 260.827 337.742 251.493 340.634C229.505 347.463 211.242 371.953 202.357 400.318C212.543 448.866 225.108 496.429 239.961 542.639C243.551 542.577 246.781 541.1 250.371 541.039C246.198 507.32 243.595 473.232 242.608 439.083C242.474 434.099 242.384 429.053 242.608 424.069C242.698 423.823 242.833 423.577 242.922 423.331C242.922 423.331 242.922 423.269 242.967 423.269C243.147 422.962 243.371 422.654 243.551 422.346C244.089 421.546 244.628 420.808 245.211 420.131C245.435 419.823 245.705 419.577 245.929 419.27C245.974 419.208 246.019 419.147 246.019 419.147C246.063 419.085 246.108 419.085 246.153 419.024C247.455 417.731 248.801 416.562 250.237 415.516C250.91 415.024 251.628 414.532 252.301 414.101C252.525 413.978 252.705 413.855 252.929 413.732C253.064 413.67 253.468 413.424 253.602 413.363C253.602 413.363 253.647 413.363 253.647 413.424C254.051 413.67 254.41 413.978 254.814 414.286C255.577 414.901 255.801 415.147 256.115 415.516C257.506 417.116 258.718 419.085 259.84 420.993C260.333 421.915 261.006 422.346 261.679 422.469C272.404 460.618 283.443 500.552 284.699 541.223C287.751 540.793 290.353 537.962 293.405 537.531C293.764 482.585 290.982 427.453 285.103 372.999Z" fill="#375954"/>
<path d="M242.563 437.79C242.429 433.237 242.384 428.622 242.563 424.131C242.653 423.884 242.788 423.638 242.877 423.392C242.877 423.392 242.877 423.331 242.922 423.331C243.102 423.023 243.326 422.715 243.506 422.408C244.044 421.608 244.583 420.869 245.166 420.193C245.39 419.885 245.66 419.639 245.884 419.331C245.929 419.27 245.974 419.208 245.974 419.208C246.019 419.147 246.063 419.147 246.108 419.085C247.41 417.793 248.756 416.624 250.192 415.578C250.865 415.086 251.583 414.593 252.256 414.163C252.48 414.039 252.66 413.916 252.884 413.793C253.019 413.732 253.423 413.486 253.557 413.424C253.557 413.424 253.602 413.424 253.602 413.486C254.006 413.732 254.365 414.04 254.769 414.347C255.532 414.962 255.756 415.209 256.07 415.578C257.461 417.178 258.673 419.147 259.795 421.054C260.288 421.977 260.961 422.408 261.635 422.531C263.026 427.392 264.372 432.314 265.763 437.298C274.02 436.191 282.231 434.037 290.084 430.53C288.783 411.332 287.123 392.135 285.058 373.06C284.071 364.077 282.86 354.539 278.327 347.833C271.821 338.172 260.782 337.803 251.448 340.695C229.46 347.525 211.197 372.014 202.312 400.38C204.601 411.209 206.979 421.915 209.492 432.622C220.531 434.775 231.48 436.99 242.563 437.79Z" fill="#375954"/>
<path d="M225.691 487.384C224.883 487.261 224.12 487.076 223.313 486.892C228.473 505.659 234.037 524.302 239.916 542.7C243.506 542.638 246.737 541.162 250.326 541.1C247.724 520.241 245.749 499.259 244.403 478.216C239.736 484.861 232.512 488.368 225.691 487.384Z" fill="#375954"/>
<path d="M275.276 474.34C280.257 496.306 283.981 518.703 284.699 541.285C287.751 540.854 290.353 538.024 293.405 537.593C293.539 514.15 293.136 490.707 292.148 467.263C286.853 470.832 281.11 473.232 275.276 474.34Z" fill="#375954"/>
<path d="M293.674 210.312L281.379 228.832C279.629 216.895 275.59 205.635 269.757 196.467C266.122 190.745 261.051 185.576 255.577 186.684C249.249 187.976 245.435 197.021 243.82 205.512C239.736 226.679 243.73 250.491 254.186 267.043C259.75 275.842 267.782 282.918 276.218 281.749C281.828 280.949 286.808 276.703 291.206 271.904C301.437 260.644 309.11 246.184 313.867 229.448C306.598 224.218 299.777 217.757 293.674 210.312Z" fill="#C7C8CA"/>
<path d="M212.812 142.997C198.318 154.196 193.113 178.931 190.196 201.39C180.728 273.996 181.311 349.002 191.946 421.239C216.627 429.238 242.159 432.929 267.513 432.745C267.423 414.101 266.391 395.703 266.301 377.06C270.834 394.965 273.436 413.486 275.5 432.253C282.276 423.454 288.379 415.393 295.155 406.594C289.097 341.31 282.142 275.596 271.641 211.419C269.442 197.882 266.974 184.223 262.442 171.793C257.91 159.364 251.044 148.104 241.935 142.074C232.826 136.044 221.607 136.229 212.812 142.997Z" fill="#E2E3E4"/>
<path d="M224.076 292.578C223.268 287.04 222.64 281.626 222.146 275.965C221.697 270.489 221.159 265.012 220.172 259.659C219.947 258.429 213.53 259.413 211.242 259.782C211.017 259.844 210.793 259.844 210.524 259.905C212.947 246.245 214.114 231.724 213.8 217.695C213.575 208.22 214.562 194.806 208.549 188.038C208.28 187.73 207.921 188.222 208.145 188.591C213.082 197.144 213.126 208.65 212.992 219.049C212.812 232.77 211.87 246.369 209.581 259.782C209.581 259.905 209.581 259.967 209.581 260.09C207.158 260.582 204.735 261.32 202.402 262.367C197.555 264.52 191.767 268.027 189.523 274.734C189.388 275.165 189.747 275.719 190.062 275.288C193.786 269.935 198.228 266.304 203.389 264.151C206.036 263.043 208.774 262.243 211.511 261.813C213.889 261.444 216.312 261.628 218.691 261.321C220.486 271.842 220.127 283.164 222.64 293.378C217.255 297.316 210.479 297.685 204.556 297.562C198.453 297.439 190.062 297.131 185.395 290.794C185.125 290.424 184.722 290.978 184.991 291.347C186.831 294.424 189.837 296.024 192.53 297.193C196.344 298.854 200.338 299.593 204.331 299.839C208.28 300.085 212.274 299.777 216.133 298.731C218.691 298.054 221.652 297.131 223.761 294.855C223.941 294.793 224.076 294.609 224.165 294.362C224.255 294.239 224.345 294.116 224.434 293.993C224.883 293.563 224.524 292.64 224.076 292.578Z" fill="#ABADB0"/>
<path d="M250.596 59.0079C251.942 61.6537 252.525 65.284 251.538 68.2374C251.583 67.1299 251.358 65.9608 250.91 65.0379C250.82 69.345 248.801 73.4675 245.884 75.2519C244.627 75.9903 243.192 76.298 241.935 75.5596C240.768 74.8212 239.961 73.2214 239.467 71.6216C237.762 66.3915 238.166 59.9308 240.454 55.1314C241.531 52.8548 243.82 50.4551 245.57 52.8548C247.23 54.9468 249.294 56.362 250.596 59.0079Z" fill="#ABADB0"/>
<path d="M213.8 136.906C214.383 137.152 214.966 137.398 215.505 137.582C217.12 138.198 218.736 138.752 220.351 139.305C228.697 142.136 237.852 144.166 246.422 142.136C243.999 131.122 242.743 119.923 242.743 108.294C246.333 105.402 249.429 102.141 251.762 97.403C247.23 85.8352 246.378 70.8833 250.326 58.9463C242.698 54.3315 233.903 54.27 225.826 57.2235C224.345 61.8998 222.999 66.5761 221.787 71.3755C220.486 71.9908 219.768 73.8367 219.633 75.7442C219.543 76.7287 219.633 78.0208 219.992 79.0668C215.819 97.8337 213.755 117.339 213.8 136.906Z" fill="#F3AC71"/>
<path d="M244.852 81.6511C242.877 83.4355 240.185 83.5586 238.076 81.9588C238.39 83.8662 239.243 85.466 240.454 86.4505C240.993 86.8812 241.621 87.1889 242.249 87.0658C243.147 86.8812 243.82 85.8967 244.179 84.7892C244.538 83.6816 244.807 82.8817 244.852 81.6511Z" fill="#D6562B"/>
<path d="M248.217 88.0503C247.993 85.7737 247.41 83.4355 246.198 81.7742C246.153 81.7127 246.063 81.8357 246.108 81.8973C248.128 85.0968 248.531 90.0808 248.083 94.1418C247.813 96.2954 246.961 98.3259 245.525 99.3104C244.044 100.356 242.474 100.049 240.948 99.495C240.858 99.4335 240.768 99.6796 240.858 99.7411C243.91 101.71 247.41 99.5565 248.217 95.0033C248.531 92.7882 248.442 90.2654 248.217 88.0503Z" fill="#EF8B46"/>
<path d="M252.166 58.0849C244.538 55.1314 236.461 54.7623 228.742 57.2235C229.819 60.3 230.133 63.8073 229.64 67.1299C229.146 70.4526 227.845 73.5291 225.96 75.7442C226.05 74.6982 225.87 73.6522 225.511 72.7292C225.467 73.6522 224.928 74.3905 224.3 74.5751C224.479 73.406 223.851 72.1754 223.043 71.8678C222.236 71.5601 221.293 72.1139 220.755 73.0368C220.216 73.9598 220.082 75.252 220.216 76.3595C220.351 77.5286 220.755 78.5746 221.204 79.5591C221.518 80.1744 221.832 80.7897 222.056 81.4665C222.281 82.1434 222.325 83.0048 222.101 83.6201C221.114 83.2509 220.127 82.8818 219.095 82.5126C217.793 79.0669 216.716 75.4365 216.133 71.6216C215.594 67.8068 215.729 63.7457 216.941 60.2385C218.152 56.7312 220.575 53.9008 223.358 53.4086C223.806 51.5011 224.479 49.8398 225.601 48.5477C225.377 49.5937 225.152 50.6397 224.928 51.6857C227.71 47.8708 231.21 44.8558 235.069 43.8713C238.929 42.8868 243.192 44.0559 246.153 47.6247C244.762 46.8248 243.236 46.5172 241.756 46.7017C246.019 49.0399 249.833 52.8548 252.166 58.0849Z" fill="#E0E9ED"/>
<path d="M240.948 62.5151C240.813 63.0689 240.679 63.6227 240.499 64.238C240.454 63.6842 240.499 63.1304 240.454 62.5767C238.794 62.0229 237.044 62.3305 235.518 63.3766C235.428 64.0534 235.339 64.7918 235.249 65.4686C237.179 65.0379 239.198 64.9763 241.127 65.5301L241.621 63.0689C241.397 62.8228 241.217 62.6997 240.948 62.5151Z" fill="#E2E3E4"/>
<path d="M248.487 64.2995C247.589 63.5611 246.602 63.1304 245.57 63.0074C245.39 63.5611 245.211 64.0534 245.076 64.6072C245.031 64.0534 245.031 63.5611 244.986 63.0074C244.807 63.0689 244.717 63.1304 244.538 63.1919C244.538 64.1149 244.538 65.0994 244.583 66.0224C245.794 65.284 248.128 66.2685 248.038 66.207L248.487 64.2995Z" fill="#E2E3E4"/>
<path d="M238.57 69.6526C238.57 69.345 238.48 69.1604 238.255 69.0373C238.121 68.9758 237.941 69.0989 237.852 69.2219C237.807 69.2835 237.807 69.345 237.807 69.468C237.762 69.7142 237.762 70.0218 237.852 70.2679C237.941 70.6987 238.345 70.6987 238.48 70.2679C238.525 70.0834 238.57 69.8372 238.57 69.6526Z" fill="#375954"/>
<path d="M246.108 69.9603C246.108 69.7757 246.108 69.5296 246.019 69.345C245.929 69.0374 245.615 68.9143 245.48 69.222C245.435 69.345 245.39 69.4681 245.39 69.6527C245.39 69.7757 245.345 69.8988 245.39 69.9603C245.39 70.0219 245.435 70.0834 245.48 70.1449C245.48 70.2065 245.525 70.2065 245.57 70.268C245.615 70.5141 245.884 70.5756 246.019 70.4526C246.108 70.391 246.108 70.2065 246.108 69.9603Z" fill="#375954"/>
<path d="M235.472 81.1589L235.249 80.8512C235.249 80.8512 235.204 80.8512 235.249 80.8512L235.472 81.1589C235.472 81.2204 235.472 81.2204 235.472 81.1589Z" fill="#375954"/>
<path d="M239.691 72.8523C239.108 73.9598 238.39 75.8673 237.178 75.1904C235.967 74.5136 235.518 72.7907 235.428 71.1909C235.428 71.1294 235.384 71.1294 235.384 71.1909C235.339 72.9138 235.877 75.2519 237.268 75.8057C238.525 76.298 239.557 74.3905 239.961 72.9753C240.006 72.7907 239.781 72.7292 239.691 72.8523Z" fill="#EF8B46"/>
<path d="M247.14 72.1754C247.14 72.1139 247.096 72.1754 247.096 72.1754C247.096 72.9138 246.961 73.8367 246.288 73.5906C245.749 73.3445 245.48 72.5446 245.256 71.9293C245.211 71.8062 245.031 71.8678 245.031 71.9908C245.031 72.9753 245.615 74.0829 246.378 74.1444C247.14 74.1444 247.23 72.9753 247.14 72.1754Z" fill="#EF8B46"/>
<path d="M250.999 74.0213C250.91 73.7752 250.82 73.5291 250.64 73.406C250.192 73.0369 249.608 73.4676 249.115 73.7752C247.679 74.6366 245.884 74.1444 244.852 72.5446C243.82 70.9448 243.64 68.4221 244.448 66.5761C244.358 65.8378 243.865 65.1609 243.326 65.284C242.788 65.4071 242.339 66.0839 242.159 66.7607C241.98 67.4991 241.98 68.299 242.025 69.0374C242.115 70.6372 242.429 72.2985 242.743 73.8367C241.98 73.7137 241.082 74.0213 240.499 74.4521C240.32 74.5751 240.185 74.8212 240.185 75.0674C239.467 76.0518 239.288 77.7132 239.736 79.0053C240.185 80.4205 241.217 81.3435 242.294 81.7127C243.371 82.0818 244.538 82.0203 245.66 81.8357C247.185 81.5896 248.756 81.0358 249.967 79.6822C251.044 78.3285 251.673 75.8673 250.999 74.0213Z" fill="url(#paint1_linear)"/>
<path d="M247.589 59.7462C246.019 58.7002 244.224 58.6387 242.518 58.5771C241.082 58.5156 239.377 58.2695 238.031 59.254C237.986 59.3155 238.031 59.377 238.076 59.377C239.512 58.5156 241.127 58.8233 242.653 58.8848C244.313 59.0079 245.929 59.3155 247.499 59.9308C247.634 59.9923 247.679 59.8077 247.589 59.7462Z" fill="#EF8B46"/>
<path d="M247.185 61.0999C246.288 60.0539 244.762 60.1769 243.685 60.1154C242.339 59.9923 240.903 59.5001 239.557 60.0539C239.512 60.0539 239.557 60.1154 239.557 60.1154C240.813 59.6847 242.115 60.2385 243.371 60.3615C244.672 60.4846 245.929 60.5461 247.096 61.2845C247.185 61.2845 247.275 61.1614 247.185 61.0999Z" fill="#EF8B46"/>
<path d="M239.691 75.4365C237.627 79.9283 238.076 85.8967 235.518 90.0193C234.396 91.8652 232.467 92.7882 230.941 91.1268C229.46 89.527 229.46 86.512 229.415 84.1739C229.415 84.1124 229.371 84.1124 229.371 84.1739C229.326 86.512 229.281 89.527 230.627 91.2499C231.839 92.7882 233.678 92.7266 234.935 91.373C236.281 89.9578 237.089 87.6811 237.582 85.5276C237.941 84.1123 238.076 82.6356 238.3 81.1589C238.659 79.1284 239.198 77.2824 239.736 75.375C239.781 75.4365 239.736 75.375 239.691 75.4365Z" fill="#EF8B46"/>
<path d="M251.717 74.0829C251.717 71.7447 250.326 69.8372 248.621 69.8372C247.365 69.8372 246.288 70.8833 245.839 72.2985C245.525 71.7447 244.986 71.3755 244.448 71.3755C243.909 71.3755 243.371 71.7447 243.057 72.2985C242.518 71.2525 241.576 70.5756 240.589 70.5756C238.884 70.5756 237.493 72.4831 237.493 74.8212C237.493 77.1594 238.884 79.0668 240.589 79.0668C242.294 79.0668 243.685 77.1594 243.685 74.8212C243.685 74.0829 243.55 73.3445 243.281 72.7292C243.55 72.1754 243.999 71.8678 244.493 71.8678C244.986 71.8678 245.48 72.2369 245.749 72.8523C245.704 73.0368 245.66 73.2214 245.66 73.406C245.749 73.4676 245.839 73.5906 245.974 73.6521C246.153 71.8062 247.32 70.3295 248.711 70.3295C250.237 70.3295 251.493 72.0524 251.493 74.1444C251.493 74.5751 251.448 74.9443 251.358 75.375C251.403 75.7442 251.358 76.0518 251.358 76.421C251.538 75.6827 251.717 74.9443 251.717 74.0829ZM243.326 74.8212C243.326 76.9133 242.07 78.6361 240.544 78.6361C239.018 78.6361 237.762 76.9133 237.762 74.8212C237.762 72.7292 239.018 71.0063 240.544 71.0063C242.115 71.0679 243.326 72.7292 243.326 74.8212Z" fill="#512519"/>
<path d="M252.839 160.472C252.839 160.41 252.839 160.349 252.839 160.349C253.423 158.134 253.961 155.919 254.589 153.827L246.512 132.045C245.345 135.429 243.461 138.075 241.127 139.982C231.345 138.075 221.697 134.567 212.498 129.583C211.107 135.798 209.626 141.52 208.235 147.735C215.056 154.196 221.877 159.918 229.012 165.394C238.749 180.162 247.185 196.652 253.961 214.25C255.038 196.344 255.262 178.008 252.839 160.472Z" fill="#577483"/>
<path d="M229.235 165.456C229.191 165.456 229.146 165.456 229.101 165.517C229.146 165.579 229.191 165.64 229.235 165.701C229.28 165.579 229.235 165.517 229.235 165.456Z" fill="#496672"/>
<path d="M252.839 160.472V160.41C251.987 162.81 251.089 165.271 250.237 167.671C247.993 159.057 245.121 150.935 241.89 142.936C239.916 152.165 238.839 162.195 239.108 171.855C236.012 169.824 232.871 168.409 229.729 166.44C232.153 170.194 234.531 174.07 236.819 178.008C242.877 182.377 248.801 187.053 254.769 191.852C254.724 181.269 254.23 170.686 252.839 160.472Z" fill="#496672"/>
<path d="M247.589 180.777C248.828 180.777 249.833 179.4 249.833 177.7C249.833 176.001 248.828 174.624 247.589 174.624C246.35 174.624 245.345 176.001 245.345 177.7C245.345 179.4 246.35 180.777 247.589 180.777Z" fill="#C7C8CA"/>
<path d="M252.076 203.974C253.316 203.974 254.32 202.597 254.32 200.897C254.32 199.198 253.316 197.821 252.076 197.821C250.837 197.821 249.833 199.198 249.833 200.897C249.833 202.597 250.837 203.974 252.076 203.974Z" fill="#C7C8CA"/>
<path d="M250.73 270.55C250.282 269.381 249.743 268.273 248.935 267.35C247.903 266.181 246.737 265.197 245.525 264.397C244.628 263.72 243.73 263.166 242.877 262.674C242.743 262.613 242.608 262.551 242.474 262.49C245.031 262.305 247.769 263.228 249.205 265.751C250.416 267.904 252.615 266.12 251.852 263.659C250.282 258.675 245.256 257.198 241.711 257.321C239.602 257.383 237.448 258.182 235.473 259.351C231.928 260.767 227.89 263.843 226.992 268.397C226.947 268.581 226.947 268.766 226.903 268.95C226.14 272.827 228.653 277.318 231.48 278.611C233.589 279.595 235.743 279.164 237.852 278.611C239.512 278.18 240.23 277.995 241.083 279.287C241.262 279.595 241.442 279.903 241.576 280.21C243.64 284.394 248.531 280.703 246.916 276.519C247.185 275.842 247.32 275.165 247.455 274.365C247.589 274.796 247.724 275.165 247.903 275.596C248.98 278.488 252.435 276.519 251.717 273.38C251.493 272.396 251.134 271.412 250.73 270.55Z" fill="#F3AC71"/>
<path d="M301.437 204.405C298.745 208.404 296.456 212.957 294.706 217.88C297.039 224.956 301.886 230.248 307.495 231.294C310.187 227.171 312.252 222.187 314.047 217.203C309.963 212.465 305.521 209.143 301.437 204.405Z" fill="#496672"/>
<path d="M306.867 178.931C305.251 178.439 304.13 181.454 305.655 182.684C306.194 183.115 306.642 183.792 307.001 184.53C306.598 184.223 306.104 183.977 305.565 183.792C304.219 183.238 302.963 184.961 303.277 186.807C303.995 191.545 304.847 196.529 304.489 201.39C304.174 205.82 303.322 209.819 303.815 214.311C304.085 216.588 306.328 217.88 307.719 216.649C311.489 213.327 312.341 208.712 312.611 203.543C315.079 193.637 315.348 181.638 306.867 178.931Z" fill="#EF8B46"/>
<path d="M231.928 261.444C227.306 262.797 222.684 264.212 218.018 265.566C216.223 273.196 217.479 281.133 221.069 287.471C225.287 286.733 229.012 286.179 233.23 285.44L231.928 261.444Z" fill="#577483"/>
<path d="M240.544 317.498C227.979 319.159 215.505 318.975 204.017 317.129C203.972 319.836 201.953 322.974 201.863 325.681C213.979 328.512 227.71 328.327 241.441 326.051L240.544 317.498Z" fill="#ABADB0"/>
<path d="M294.257 315.652C293.898 313.375 293.674 311.037 293.405 308.761C288.558 309.745 283.757 310.422 279.045 310.73C279.315 313.437 280.526 316.944 280.795 319.652C285.552 319.652 290.084 319.098 294.616 318.113C294.527 317.313 294.392 316.452 294.257 315.652Z" fill="#ABADB0"/>
<path d="M359.503 242.185C362.51 241.077 365.067 237.816 366.1 233.755C367.087 229.694 366.503 224.956 364.574 221.572C364.26 221.018 363.811 220.403 363.273 220.403C362.644 220.403 362.196 221.203 361.881 221.879C360.76 224.218 358.651 227.848 358.381 230.678C358.202 232.34 358.74 234.616 358.92 236.278C359.144 238.247 359.324 240.216 359.503 242.185Z" fill="#F8DB94"/>
<path d="M362.151 196.836C360.849 208.035 357.574 218.864 352.727 228.032C354.029 229.448 355.913 229.817 357.484 228.955C357.484 230.801 357.529 233.632 357.529 233.263C360.804 233.324 362.689 226.863 363.856 223.541C363.946 231.232 361.837 236.831 357.977 239.046C358.292 245.199 358.157 252.091 359.324 258.059C359.728 260.213 360.266 262.49 361.478 263.905C362.914 265.566 364.978 265.751 366.773 265.012C368.568 264.274 370.093 262.797 371.619 261.259C373.818 265.258 375.882 269.504 378.081 273.504C385.53 263.474 391.677 251.66 396.165 238.8C389.613 232.463 385.171 222.31 384.183 211.419C383.735 206.681 383.869 201.513 381.895 197.636C379.696 193.329 375.478 191.791 371.709 192.529C367.939 193.268 365.516 194.375 362.151 196.836Z" fill="#F3AC71"/>
<path d="M384.228 211.481C383.78 206.743 383.914 201.574 381.94 197.698C379.741 193.391 375.523 191.852 371.754 192.591C368.478 193.206 366.189 194.068 363.452 195.975C363.766 205.451 364.17 214.926 364.484 224.464C364.933 236.954 365.292 249.999 361.657 261.505C361.478 262.12 361.253 262.736 361.029 263.351C361.163 263.597 361.343 263.843 361.522 264.028C362.958 265.689 365.023 265.874 366.817 265.135C368.612 264.397 370.138 262.92 371.664 261.382C373.863 265.382 375.927 269.627 378.126 273.627C385.575 263.597 391.722 251.783 396.21 238.923C389.658 232.586 385.216 222.372 384.228 211.481Z" fill="#EF8B46"/>
<path d="M363.766 204.835C363.048 204.282 362.151 204.405 361.343 204.712C360.67 204.958 359.548 205.635 359.458 206.743C359.413 207.297 359.772 207.85 360.176 207.604C360.715 207.358 361.074 206.804 361.657 206.62C362.106 206.435 362.689 206.374 363.093 206.62C363.946 207.174 364.619 205.451 363.766 204.835Z" fill="#B53B25"/>
<path d="M396.658 465.356C396.165 486.83 395.716 508.304 395.222 529.779C398.049 529.779 401.056 528.794 403.883 528.794C407.473 510.396 410.704 490.584 414.293 472.124C414.922 468.802 415.55 465.171 414.473 462.095C413.037 458.034 409.088 456.742 405.902 458.034C402.716 459.326 399.037 462.279 396.658 465.356Z" fill="#454545"/>
<path d="M365.382 409.486C352.548 418.162 339.714 426.838 326.88 435.514C323.963 437.483 320.822 439.821 319.745 444.005C318.713 448.004 319.925 452.373 321.181 456.249C330.335 484.615 342.182 511.319 356.272 535.562C359.997 537.039 364.035 535.809 367.58 533.655C362.196 513.473 355.689 492.491 350.304 472.309C368.074 475.324 385.395 477.908 403.3 476.493C412.319 475.755 421.473 473.847 429.64 468.433C437.807 463.018 444.897 453.788 447.724 442.036C450.551 430.222 448.307 415.947 441.217 408.256C433.095 399.518 421.608 401.118 411.377 403.149C395.581 406.287 379.606 399.887 365.382 409.486Z" fill="#375954"/>
<path d="M357.529 452.619C371.889 463.633 389.434 465.233 405.544 460.618C420.845 456.249 435.07 446.835 448.577 436.006C449.519 425.669 447.006 414.593 441.083 408.194C432.961 399.457 421.474 401.057 411.242 403.087C395.537 406.225 379.562 399.887 365.337 409.486C356.542 415.455 347.747 421.362 338.952 427.33C343.349 437.79 349.676 446.528 357.529 452.619Z" fill="#375954"/>
<path d="M344.604 470.832C336.258 465.664 327.822 459.941 321.495 450.896C320.732 449.85 320.059 448.743 319.386 447.574C319.43 450.527 320.328 453.542 321.225 456.249C330.38 484.615 342.226 511.319 356.316 535.562C360.041 537.039 364.079 535.809 367.624 533.655C362.419 514.211 356.227 494.091 350.932 474.586C348.778 473.355 346.669 472.124 344.604 470.832Z" fill="#375954"/>
<path d="M451.09 382.597C445.391 350.971 438.794 319.652 431.345 288.763C427.038 270.981 421.339 251.476 408.909 243.661C408.415 233.693 401.908 225.756 394.639 226.002C385.664 243.723 378.215 262.92 372.516 283.041C370.273 285.687 368.523 289.255 367.401 292.947C365.382 299.531 364.843 306.792 364.17 313.868C361.792 338.541 357.17 362.785 350.529 385.92C348.06 394.473 340.522 408.44 341.374 417.547C342.182 425.73 348.868 431.945 354.836 434.345C354.971 435.514 355.15 436.683 355.42 437.79C358.112 448.374 367.266 452.619 375.343 454.342C390.421 457.542 405.992 456.742 420.845 451.881C433.724 447.697 447.32 438.898 452.077 421.977C455.622 409.548 453.468 395.58 451.09 382.597Z" fill="#67923D"/>
<path d="M356.945 533.655C356.317 536.732 356.586 540.177 357.708 542.946C356.362 545.469 354.747 547.93 353.4 550.453C350.259 551.868 347.163 554.452 344.74 557.59C344.291 558.144 343.842 559.067 344.201 559.744C344.381 560.052 344.695 560.175 344.964 560.298C349.676 561.836 354.702 561.282 359.413 559.621C364.125 558.021 368.612 555.375 373.1 552.73C373.459 552.483 373.908 552.237 374.042 551.745C374.222 551.191 374.042 550.514 373.863 549.961C372.875 546.823 371.798 543.746 370.677 540.67C369.734 538.147 368.747 535.624 367.356 533.593C365.965 531.563 364.08 529.963 362.061 529.717C360.042 529.471 357.484 530.948 356.945 533.655Z" fill="#E0E9ED"/>
<path d="M395.133 526.764C394.056 532.178 393.248 537.716 392.754 543.254C392.665 544.361 392.575 545.653 393.068 546.576C393.652 547.746 394.818 547.93 395.851 547.992C400.652 548.299 405.453 547.684 410.12 546.207C410.659 546.023 411.287 545.777 411.601 545.1C411.915 544.423 411.736 543.5 411.511 542.762C410.659 540.054 408.954 537.901 406.934 536.978C406.845 534.886 406.216 532.732 405.498 530.886C405.588 528.979 405.498 527.563 405.319 525.718C405.274 525.225 405.184 524.671 404.96 524.241C404.466 523.502 403.659 523.687 402.985 523.933C400.517 524.795 397.601 525.964 395.133 526.764Z" fill="#C7C8CA"/>
<path d="M360.894 212.527C360.266 212.588 359.817 213.942 359.997 214.68C359.997 214.742 360.042 214.742 360.087 214.68C360.266 214.127 360.446 212.773 361.029 212.896C361.567 213.019 361.388 214.127 361.702 214.557C361.747 214.619 361.837 214.557 361.881 214.496C361.881 213.696 361.522 212.465 360.894 212.527Z" fill="#375954"/>
<path d="M384.587 203.482C384.273 200.036 383.286 196.59 381.401 194.314C380.235 192.898 378.799 191.976 377.273 191.483C376.51 191.237 375.702 191.053 374.94 190.991C374.895 190.929 374.85 190.868 374.805 190.806C373.818 189.33 372.068 188.899 370.811 189.945C372.157 188.837 372.247 186.007 371.215 184.407C370.228 182.807 368.478 182.315 366.952 182.746C365.426 183.115 364.08 184.223 362.734 185.33C363.497 184.284 363.362 182.377 362.599 181.269C361.881 180.162 360.76 179.669 359.683 179.485C357.933 179.116 356.093 179.362 354.567 180.531C353.041 181.7 351.83 183.853 351.785 186.315C349.586 187.607 348.06 190.806 348.15 194.068C348.24 197.329 349.9 200.405 352.189 201.451C352.368 202.928 353.4 204.036 354.477 204.036C355.554 204.036 356.542 202.805 356.721 201.328C357.484 202.866 359.189 203.174 360.49 202.436C361.074 202.067 361.612 201.574 362.106 201.021C362.779 202.559 363.676 203.974 364.708 205.143C364.619 205.82 364.664 206.374 364.664 207.051C364.708 207.727 364.843 208.466 365.202 208.896C365.561 209.389 366.144 209.635 366.593 209.327C367.042 209.02 367.311 208.22 367.042 207.604C367.85 207.358 368.388 206.189 368.209 205.143C368.657 206.681 369.061 208.281 369.061 209.942C369.106 211.788 368.568 213.696 367.401 214.68C367.76 216.096 368.388 217.326 369.375 218.003C373.908 214.496 379.203 213.388 384.318 214.434C384.587 210.804 384.902 206.866 384.587 203.482Z" fill="#D6562B"/>
<path d="M384.318 214.25C384.587 210.804 384.902 206.866 384.587 203.42C384.273 199.974 383.286 196.529 381.401 194.252C380.235 192.837 378.799 191.914 377.273 191.422C377.228 191.422 377.183 191.422 377.183 191.36C375.792 195.79 373.279 199.482 370.183 201.697C368.253 203.051 366.144 203.851 363.991 204.036C364.215 204.343 364.484 204.651 364.708 204.897C364.619 205.574 364.664 206.128 364.664 206.804C364.708 207.481 364.843 208.22 365.202 208.65C365.561 209.143 366.144 209.389 366.593 209.081C367.042 208.773 367.311 207.973 367.042 207.358C367.85 207.112 368.388 205.943 368.209 204.897C368.657 206.435 369.061 208.035 369.061 209.696C369.106 211.542 368.568 213.45 367.401 214.434C367.76 215.849 368.388 217.08 369.375 217.757C373.908 214.373 379.203 213.204 384.318 214.25Z" fill="#B53B25"/>
<path d="M452.122 422.1C455.622 409.609 453.468 395.642 451.135 382.597C445.436 350.971 438.839 319.652 431.39 288.763C429.281 280.087 426.858 270.981 423.493 263.105C419.903 264.151 416.447 265.997 413.172 268.643C397.96 281.256 392.934 308.638 393.652 333.004C394.37 357.37 399.485 381.428 398.633 405.794C398.184 418.716 395.761 432.253 389.12 441.482C384.094 448.497 377.094 452.189 369.869 452.865C371.709 453.542 373.593 454.096 375.388 454.465C390.466 457.665 406.037 456.865 420.89 452.004C433.769 447.82 447.365 439.021 452.122 422.1Z" fill="#375954"/>
<path d="M393.427 378.844C398.722 355.093 396.883 328.45 388.446 306.484C387.684 304.515 386.696 302.361 385.081 301.992C381.805 301.254 380.594 307.653 380.728 312.206C381.267 330.973 380.459 349.802 378.305 368.384C377.138 378.536 375.523 388.75 371.754 397.611C367.984 406.471 361.792 413.855 354.388 415.455C351.516 416.07 348.15 416.009 346.176 418.962C341.374 426.223 349.182 432.806 353.445 433.852C360.042 435.514 364.888 431.268 369.869 425.915C380.908 413.916 389.299 397.303 393.427 378.844Z" fill="#375954"/>
<path d="M454.859 548.484H458.135C458.135 548.484 429.999 527.748 418.96 488.799L408.505 483.877C408.505 483.877 419.589 510.15 422.281 522.026C424.973 533.901 388.761 545.407 388.761 545.407V548.484C388.761 548.484 423.178 531.132 430.942 536.239C438.705 541.285 443.192 551.991 443.192 551.991H446.468C446.468 551.991 435.698 539.685 435.698 535.993C435.698 532.24 454.859 548.484 454.859 548.484Z" fill="#E2E3E4"/>
<path d="M418.96 488.738L408.505 483.815C408.505 483.815 412.678 493.66 416.492 504.059C419.005 503.69 421.518 503.32 424.031 503.013C422.101 498.583 420.396 493.845 418.96 488.738Z" fill="#F3AC71"/>
<path d="M445.57 466.217H374.356C369.241 466.217 365.067 471.94 365.067 478.954V480.185C365.067 487.2 369.241 492.922 374.356 492.922H445.57C450.686 492.922 454.859 487.2 454.859 480.185V478.954C454.859 471.878 450.686 466.217 445.57 466.217Z" fill="#E2D88A"/>
<path d="M448.756 466.217H401.998C398.633 466.217 395.895 471.94 395.895 478.954V480.185C395.895 487.199 398.633 492.922 401.998 492.922H448.756C452.122 492.922 454.859 487.199 454.859 480.185V478.954C454.859 471.878 452.122 466.217 448.756 466.217Z" fill="#FEF29C"/>
<path d="M387.235 556.052C390.209 556.052 392.62 552.746 392.62 548.668C392.62 544.591 390.209 541.285 387.235 541.285C384.261 541.285 381.85 544.591 381.85 548.668C381.85 552.746 384.261 556.052 387.235 556.052Z" fill="#454545"/>
<path d="M443.416 563.497C446.39 563.497 448.801 560.192 448.801 556.114C448.801 552.036 446.39 548.73 443.416 548.73C440.442 548.73 438.031 552.036 438.031 556.114C438.031 560.192 440.442 563.497 443.416 563.497Z" fill="#454545"/>
<path d="M457.192 559.313C460.166 559.313 462.577 556.008 462.577 551.93C462.577 547.852 460.166 544.546 457.192 544.546C454.218 544.546 451.808 547.852 451.808 551.93C451.808 556.008 454.218 559.313 457.192 559.313Z" fill="#454545"/>
<path d="M471.552 352.017C471.417 346.11 466.84 343.833 461.949 343.956C458.942 344.018 456.519 344.633 453.558 345.556C444.448 348.448 437.134 348.079 428.294 343.956C425.557 342.664 423.313 341.249 420.441 340.818C417.569 340.387 410.614 340.51 409.313 348.694C409.133 349.802 407.742 381.182 410.793 399.272C423.672 410.901 440.006 413.363 454.545 406.41C457.551 404.994 460.558 403.087 462.622 399.764C465.045 395.888 465.898 390.658 466.436 385.612C467.334 377.244 471.776 360.446 471.552 352.017Z" fill="#E2D88A"/>
<path d="M475.052 363.4C474.917 357.493 473.93 350.54 469.981 348.14C467.244 346.479 464.058 347.709 461.141 348.632C452.032 351.524 442.294 350.848 433.409 346.725C430.672 345.433 430.852 344.325 428.025 343.895C425.153 343.464 418.197 343.587 416.896 351.771C416.717 352.878 415.326 384.259 418.377 402.349C431.256 413.978 447.589 416.439 462.128 409.486C465.135 408.071 468.141 406.164 470.206 402.841C472.629 398.965 473.481 393.734 474.02 388.689C474.917 380.321 475.231 371.829 475.052 363.4Z" fill="#FEF29C"/>
<path d="M461.096 380.321C454.276 380.628 447.455 380.936 440.634 381.305C439.647 381.367 438.525 381.49 437.897 382.536C437.313 383.459 437.313 384.751 437.313 385.92C437.358 391.642 437.358 397.98 437.358 403.702C439.557 405.548 442.16 406.41 444.718 406.287C446.871 421.792 446.019 438.098 442.205 453.05C441.083 457.419 439.692 461.787 437.224 464.987C434.756 468.186 430.358 471.263 427.172 469.602C426.409 473.97 426.768 478.893 428.698 482.523C430.627 486.153 434.217 488.307 437.313 486.953C440.455 485.6 442.564 480.431 441.262 476.247C452.75 456.68 457.686 430.468 454.006 406.164C456.564 406.04 459.212 404.564 460.558 401.61C463.385 395.396 459.481 387.151 461.096 380.321Z" fill="#454545"/>
<path d="M482.77 221.203C485.822 230.617 490.04 239.662 496.277 245.446C502.514 251.168 511.085 253.014 517.592 247.907C523.964 242.923 527.105 232.832 529.618 223.418C533.881 207.481 537.695 191.299 541.061 174.932C544.112 159.918 546.625 143.182 541.375 129.399C536.394 116.231 525.22 109.217 514.406 108.663C472.629 106.571 469.712 180.838 482.77 221.203Z" fill="#F7CBBF"/>
<path d="M139.893 256.829C134.778 283.041 116.469 301.315 110.995 327.343C109.469 334.603 108.975 342.295 107.001 349.309C105.027 356.385 100.943 363.031 95.5135 364.138C90.3531 365.123 85.2375 360.692 82.3208 354.786C79.404 348.817 78.327 341.618 77.5193 334.542C72.1345 286.856 78.4616 236.893 95.1994 194.437C98.2059 186.868 101.706 179.239 107.091 174.87C133.656 153.457 143.932 235.97 139.893 256.829Z" fill="url(#paint2_linear)"/>
</g>
<defs>
<linearGradient id="paint0_linear" x1="322.314" y1="-4.79985" x2="305.446" y2="583.206" gradientUnits="userSpaceOnUse">
<stop stop-color="#F8DB94"/>
<stop offset="1" stop-color="#C6A9B5"/>
</linearGradient>
<linearGradient id="paint1_linear" x1="238.78" y1="66.8387" x2="255.401" y2="80.0407" gradientUnits="userSpaceOnUse">
<stop offset="0.0837838" stop-color="#F3AC71"/>
<stop offset="1" stop-color="#EB6342"/>
</linearGradient>
<linearGradient id="paint2_linear" x1="108.187" y1="-9.40274" x2="108.187" y2="411.913" gradientUnits="userSpaceOnUse">
<stop stop-color="#F8DB94"/>
<stop offset="1" stop-color="#C6A9B5"/>
</linearGradient>
<clipPath id="clip0">
<rect width="644" height="603" fill="white"/>
</clipPath>
</defs>
</svg>
